The great Roman General Maximus (Russell Crowe) has once again led the legions to victory on the battlefield. The war won, Maximus dreams of home, wanting only to return to his wife and son; however, the dying Emperor Marcus Aurelius (Richard Harris) has one more duty for the general - to assume the mantle of his power.

Jealous of Maximus' favor with the emperor, the heir to the throne, Commodus (Joaquin Phoenix), orders his execution - and that of his family. Barely escaping death, Maximus is forced into slavery and trained as a gladiator in the arena where his fame grows.

Now he has come to Rome, intent on avenging the murder of his wife and son by killing the new emperor; Commodus....


Format : MPEG-4
Format profile : Base Media / Version 2
Codec ID : mp42
File size : 1 000 MiB
Duration : 2h 28mn
Overall bit rate : 941 Kbps
Encoded date : UTC 2009-10-03 08:28:29
Tagged date : UTC 2009-10-03 15:35:28
Writing application : HandBrake 0.9.3 2008112300

Video
ID : 1
Format : AVC
Format/Info : Advanced Video Codec
Format profile : Main@L4.0
Format settings, CABAC : Yes
Format settings, ReFrames : 3 frames
Codec ID : avc1
Codec ID/Info : Advanced Video Coding
Duration : 2h 28mn
Bit rate mode : Variable
Bit rate : 777 Kbps
Width : 710 pixels
Height : 434 pixels
Display aspect ratio : 2.35:1
Frame rate mode : Variable
Frame rate : 25.000 fps
Minimum frame rate : 12.500 fps
Maximum frame rate : 25.000 fps
Resolution : 24 bits
Colorimetry : 4:2:0
Scan type : Progressive
Bits/(Pixel*Frame) : 0.101
Stream size : 826 MiB (83%)
Writing library : x264 core 65


Audio
ID : 2
Format : AAC
Format/Info : Advanced Audio Codec
Format version : Version 4
Format profile : LC
Format settings, SBR : No
Codec ID : 40
Duration : 2h 28mn
Bit rate mode : Variable
Bit rate : 160 Kbps
Maximum bit rate : 225 Kbps
Channel(s) : 2 channels
Channel positions : L R
Sampling rate : 48.0 KHz
Resolution : 16 bits
Stream size : 170 MiB (17%)
Language : English
Encoded date : UTC 2009-10-03 08:28:30
Tagged date : UTC 2009-10-03 15:35:23